<svg width="240" height="60" viewBox="0 0 240 60" fill="none" xmlns="http://www.w3.org/2000/svg">
<path d="M2.44273 28.4414C2.38721 28.1758 2.38721 27.8572 2.38721 27.5385V10.756C2.38721 9.58761 2.49825 8.68475 2.77585 7.72879C3.4976 5.12643 4.83008 3.26761 6.82879 1.88677C8.66094 0.612147 10.5486 0.0810547 13.2691 0.0810547H37.7533V10.0125H14.3795V28.3883H37.7533V38.3197H10.9928C9.99342 38.3197 8.93854 38.1073 7.9947 37.7355C4.71904 36.4078 2.77585 33.6461 2.44273 28.4414ZM74.4882 28.3883V38.3197H42.5089V0.0810547H54.5011V28.3883H74.4882ZM76.939 28.5476C76.939 28.1758 76.8835 27.8572 76.8835 27.5385V0.0810547H88.8758V28.3883H105.254V0.0810547H117.246V27.751C117.246 30.672 116.525 32.5839 114.748 34.7614C112.694 37.3106 110.751 38.3197 108.585 38.3197H87.3767C84.6563 38.3197 84.1566 38.2666 82.3799 37.5762C79.1043 36.2484 77.3276 33.8054 76.939 28.5476ZM131.652 38.3197V10.0125H119.66V0.0810547H155.637V10.0125H143.645V38.3197H131.652ZM158.104 28.4414C158.049 28.1758 158.049 27.8572 158.049 27.5385V10.756C158.049 9.58761 158.16 8.68475 158.437 7.72879C159.159 5.12643 160.492 3.26761 162.49 1.88677C164.322 0.612147 166.21 0.0810547 168.931 0.0810547H193.414V10.0125H170.041V28.3883H193.414V38.3197H166.654C165.655 38.3197 164.6 38.1073 163.656 37.7355C160.38 36.4078 158.437 33.6461 158.104 28.4414ZM210.163 22.8118V38.3197H198.17V0.0810547H210.163V14.5799H225.542V0.0810547H237.533V38.3197H225.542V22.8118H210.163Z" fill="black"/>
<path d="M41.2767 59.9996C41.2087 59.9996 41.1748 59.9672 41.1748 59.9021V46.45C41.1748 46.385 41.2087 46.3525 41.2767 46.3525H44.1708C44.2388 46.3525 44.2727 46.385 44.2727 46.45V59.9021C44.2727 59.9672 44.2388 59.9996 44.1708 59.9996H41.2767ZM47.1239 59.9996C47.056 59.9996 47.0219 59.9672 47.0219 59.9021V46.45C47.0219 46.385 47.056 46.3525 47.1239 46.3525H50.181C50.2489 46.3525 50.2897 46.3786 50.3032 46.4305L54.359 53.7025H54.5628V46.45C54.5628 46.385 54.5969 46.3525 54.6647 46.3525H57.681C57.749 46.3525 57.7829 46.385 57.7829 46.45V59.9021C57.7829 59.9672 57.749 59.9996 57.681 59.9996H54.6239C54.5561 59.9996 54.5154 59.9736 54.5017 59.9216L50.4459 52.6497H50.2625V59.9021C50.2625 59.9672 50.2286 59.9996 50.1606 59.9996H47.1239ZM60.459 59.9996C60.391 59.9996 60.3571 59.9672 60.3571 59.9021V46.45C60.3571 46.385 60.391 46.3525 60.459 46.3525H69.2634C69.3177 46.3525 69.3653 46.372 69.4061 46.411L71.1181 48.0682C71.1588 48.1072 71.1792 48.1527 71.1792 48.2046V58.167C71.1792 58.2189 71.1588 58.2645 71.1181 58.3035L69.4061 59.9411C69.3653 59.9801 69.3177 59.9996 69.2634 59.9996H60.459ZM63.5976 57.3482H67.4699L67.9387 56.8998V49.4134L67.4699 48.965H63.5976V57.3482ZM75.6675 59.9996C75.6132 59.9996 75.5656 59.9801 75.5248 59.9411L73.8129 58.3035C73.7721 58.2645 73.7517 58.2189 73.7517 58.167V46.45C73.7517 46.385 73.7856 46.3525 73.8536 46.3525H76.8904C76.9583 46.3525 76.9923 46.385 76.9923 46.45V56.8998L77.461 57.3482H80.7627L81.2314 56.8998V46.45C81.2314 46.385 81.2653 46.3525 81.3333 46.3525H84.3701C84.438 46.3525 84.472 46.385 84.472 46.45V58.167C84.472 58.2189 84.4516 58.2645 84.4108 58.3035L82.6785 59.9411C82.6377 59.9801 82.5901 59.9996 82.5358 59.9996H75.6675ZM89.1258 59.9996C89.0713 59.9996 89.0239 59.9801 88.9831 59.9411L87.2711 58.3035C87.2304 58.2645 87.21 58.2189 87.21 58.167V55.652C87.21 55.587 87.2439 55.5546 87.3119 55.5546H90.2671C90.3349 55.5546 90.369 55.587 90.369 55.652V56.8998L90.8378 57.3482H94.4044L94.8731 56.8998V54.7942L94.4044 54.3458H88.9627C88.9083 54.3458 88.8608 54.3263 88.8201 54.2873L87.1081 52.6302C87.0673 52.5912 87.047 52.5456 87.047 52.4937V48.2046C87.047 48.1527 87.0673 48.1072 87.1081 48.0682L88.8201 46.411C88.8608 46.372 88.9083 46.3525 88.9627 46.3525H95.9941C96.0484 46.3525 96.096 46.372 96.1367 46.411L97.8691 48.0682C97.9099 48.1072 97.9302 48.1527 97.9302 48.2046V50.5051C97.9302 50.5702 97.8962 50.6026 97.8283 50.6026H94.8324C94.7644 50.6026 94.7305 50.5702 94.7305 50.5051V49.4134L94.221 48.965H90.7359L90.2671 49.4134V51.168L90.7562 51.6554H96.1775C96.2318 51.6554 96.2794 51.6749 96.3202 51.7139L98.0525 53.371C98.0933 53.41 98.1137 53.4556 98.1137 53.5075V58.167C98.1137 58.2189 98.0933 58.2645 98.0525 58.3035L96.3202 59.9411C96.2794 59.9801 96.2318 59.9996 96.1775 59.9996H89.1258ZM103.371 59.9996C103.303 59.9996 103.269 59.9672 103.269 59.9021V48.965H100.008C99.94 48.965 99.9059 48.9325 99.9059 48.8675V46.45C99.9059 46.385 99.94 46.3525 100.008 46.3525H109.872C109.94 46.3525 109.974 46.385 109.974 46.45V48.8675C109.974 48.9325 109.94 48.965 109.872 48.965H106.53V59.9021C106.53 59.9672 106.496 59.9996 106.428 59.9996H103.371ZM111.848 59.9996C111.78 59.9996 111.747 59.9672 111.747 59.9021V46.45C111.747 46.385 111.78 46.3525 111.848 46.3525H120.633C120.687 46.3525 120.734 46.372 120.775 46.411L122.508 48.0682C122.548 48.1072 122.569 48.1527 122.569 48.2046V53.8389C122.569 53.8779 122.555 53.9235 122.528 53.9754L120.979 55.5156C120.938 55.5546 120.891 55.5741 120.836 55.5741H120.347L122.671 59.8826C122.711 59.9606 122.684 59.9996 122.589 59.9996H119.226C119.158 59.9996 119.118 59.9736 119.104 59.9216L116.821 55.652H114.987V59.9021C114.987 59.9672 114.953 59.9996 114.885 59.9996H111.848ZM114.987 52.9421H118.839L119.308 52.4937V49.4134L118.839 48.965H114.987V52.9421ZM125.466 59.9996C125.398 59.9996 125.365 59.9672 125.365 59.9021V46.45C125.365 46.385 125.398 46.3525 125.466 46.3525H128.361C128.428 46.3525 128.462 46.385 128.462 46.45V59.9021C128.462 59.9672 128.428 59.9996 128.361 59.9996H125.466ZM131.314 59.9996C131.246 59.9996 131.212 59.9672 131.212 59.9021V46.45C131.212 46.385 131.246 46.3525 131.314 46.3525H140.607C140.675 46.3525 140.709 46.385 140.709 46.45V48.8675C140.709 48.9325 140.675 48.965 140.607 48.965H134.473V51.8309H139.14C139.208 51.8309 139.242 51.8633 139.242 51.9283V54.3458C139.242 54.4109 139.208 54.4433 139.14 54.4433H134.473V57.3482H141.137C141.191 57.3482 141.219 57.3806 141.219 57.4456L140.872 59.9021C140.872 59.9672 140.831 59.9996 140.75 59.9996H131.314ZM145.79 59.9996C145.735 59.9996 145.688 59.9801 145.647 59.9411L143.935 58.3035C143.894 58.2645 143.874 58.2189 143.874 58.167V55.652C143.874 55.587 143.908 55.5546 143.976 55.5546H146.931C146.999 55.5546 147.033 55.587 147.033 55.652V56.8998L147.502 57.3482H151.068L151.537 56.8998V54.7942L151.068 54.3458H145.627C145.572 54.3458 145.525 54.3263 145.484 54.2873L143.772 52.6302C143.731 52.5912 143.711 52.5456 143.711 52.4937V48.2046C143.711 48.1527 143.731 48.1072 143.772 48.0682L145.484 46.411C145.525 46.372 145.572 46.3525 145.627 46.3525H152.658C152.712 46.3525 152.76 46.372 152.801 46.411L154.533 48.0682C154.574 48.1072 154.594 48.1527 154.594 48.2046V50.5051C154.594 50.5702 154.56 50.6026 154.492 50.6026H151.496C151.428 50.6026 151.394 50.5702 151.394 50.5051V49.4134L150.885 48.965H147.4L146.931 49.4134V51.168L147.42 51.6554H152.841C152.896 51.6554 152.943 51.6749 152.984 51.7139L154.716 53.371C154.757 53.41 154.778 53.4556 154.778 53.5075V58.167C154.778 58.2189 154.757 58.2645 154.716 58.3035L152.984 59.9411C152.943 59.9801 152.896 59.9996 152.841 59.9996H145.79ZM164.954 59.9996C164.886 59.9996 164.852 59.9672 164.852 59.9021V46.45C164.852 46.385 164.886 46.3525 164.954 46.3525H167.848C167.916 46.3525 167.95 46.385 167.95 46.45V59.9021C167.95 59.9672 167.916 59.9996 167.848 59.9996H164.954ZM170.801 59.9996C170.733 59.9996 170.699 59.9672 170.699 59.9021V46.45C170.699 46.385 170.733 46.3525 170.801 46.3525H173.858C173.926 46.3525 173.967 46.3786 173.981 46.4305L178.036 53.7025H178.24V46.45C178.24 46.385 178.275 46.3525 178.342 46.3525H181.358C181.427 46.3525 181.46 46.385 181.46 46.45V59.9021C181.46 59.9672 181.427 59.9996 181.358 59.9996H178.301C178.233 59.9996 178.192 59.9736 178.178 59.9216L174.123 52.6497H173.94V59.9021C173.94 59.9672 173.906 59.9996 173.838 59.9996H170.801ZM185.949 59.9996C185.897 59.9996 185.847 59.9801 185.807 59.9411L184.096 58.3035C184.055 58.2645 184.034 58.2189 184.034 58.167V48.2046C184.034 48.1527 184.055 48.1072 184.096 48.0682L185.807 46.411C185.847 46.372 185.897 46.3525 185.949 46.3525H193.042C193.097 46.3525 193.144 46.372 193.184 46.411L194.897 48.0682C194.938 48.1072 194.959 48.1527 194.959 48.2046V51.129C194.959 51.1941 194.924 51.2265 194.857 51.2265H191.819C191.752 51.2265 191.717 51.1941 191.717 51.129V49.4134L191.248 48.965H187.764L187.295 49.4134V56.9193L187.764 57.3677H191.248L191.717 56.9193V54.9112C191.717 54.8462 191.752 54.8137 191.819 54.8137H194.857C194.924 54.8137 194.959 54.8462 194.959 54.9112V58.167C194.959 58.2189 194.938 58.2645 194.897 58.3035L193.205 59.9411C193.165 59.9801 193.118 59.9996 193.063 59.9996H185.949ZM197.141 59.9996C197.073 59.9996 197.039 59.9672 197.039 59.9021V57.7771C197.039 57.712 197.073 57.6796 197.141 57.6796H199.404C199.471 57.6796 199.506 57.712 199.506 57.7771V59.9021C199.506 59.9672 199.471 59.9996 199.404 59.9996H197.141Z" fill="#3A4AAA"/>
</svg>
