<svg width="400" height="314" viewBox="0 0 400 314" fill="none" xmlns="http://www.w3.org/2000/svg">
<path d="M29.5957 63.9639L29.5957 155.028" stroke="#1E1B4B" stroke-width="4" stroke-linecap="round"/>
<path d="M369.721 63.9639V155.028" stroke="#1E1B4B" stroke-width="4" stroke-linecap="round"/>
<path d="M201.505 0.269376C198.893 -0.624779 196.05 0.768336 195.156 3.38099C194.261 5.99364 195.655 8.83647 198.267 9.73062L201.505 0.269376ZM381.353 72.3902L386.084 74.0092L389.322 64.5479L384.591 62.9289L381.353 72.3902ZM198.267 9.73062L381.353 72.3902L384.591 62.9289L201.505 0.269376L198.267 9.73062Z" fill="#1E1B4B"/>
<path d="M198.315 0.269376C200.927 -0.624779 203.77 0.768336 204.664 3.38099C205.558 5.99364 204.165 8.83647 201.553 9.73062L198.315 0.269376ZM18.4664 72.3902L13.7358 74.0092L10.4978 64.5479L15.2284 62.9289L18.4664 72.3902ZM201.553 9.73062L18.4664 72.3902L15.2284 62.9289L198.315 0.269376L201.553 9.73062Z" fill="#1E1B4B"/>
<g clip-path="url(#clip0_282_19)">
<path d="M86.6783 107.362C86.6783 110.674 85.9842 113.673 84.5959 116.358C83.2524 118.999 81.17 121.103 78.3487 122.669C75.5273 124.191 71.9671 124.952 67.6679 124.952C61.5774 124.952 56.9423 123.341 53.7628 120.118C50.6279 116.851 49.0605 112.554 49.0605 107.228V76.3454H56.3154V106.892C56.3154 110.831 57.2782 113.807 59.2039 115.821C61.1296 117.791 64.0628 118.775 68.0038 118.775C70.6908 118.775 72.8852 118.283 74.5869 117.298C76.2886 116.314 77.5202 114.949 78.2815 113.203C79.0876 111.413 79.4906 109.287 79.4906 106.825V76.3454H86.6783V107.362ZM132.645 76.3454C136.764 76.3454 140.146 76.8602 142.788 77.8896C145.43 78.919 147.401 80.4631 148.699 82.522C149.998 84.536 150.647 87.0872 150.647 90.1754C150.647 92.6371 150.177 94.7183 149.237 96.4191C148.341 98.0751 147.176 99.4402 145.744 100.514C144.311 101.544 142.81 102.372 141.243 102.998L154.678 124.28H146.348L134.794 104.878H126.464V124.28H119.21V76.3454H132.645ZM132.174 82.522H126.464V98.836H132.51C134.973 98.836 136.989 98.5227 138.556 97.8961C140.168 97.2695 141.332 96.3296 142.049 95.0764C142.81 93.8231 143.191 92.279 143.191 90.444C143.191 88.5194 142.788 86.9977 141.982 85.8787C141.221 84.7151 140.012 83.8647 138.354 83.3276C136.742 82.7905 134.682 82.522 132.174 82.522ZM195.91 76.3454C199.986 76.3454 203.389 76.7259 206.121 77.4868C208.898 78.2476 210.98 79.5232 212.368 81.3135C213.802 83.059 214.518 85.3864 214.518 88.2956C214.518 90.1754 214.182 91.8538 213.51 93.3308C212.838 94.763 211.853 95.9715 210.554 96.9562C209.301 97.8961 207.733 98.5227 205.852 98.836V99.1717C207.778 99.485 209.502 100.067 211.025 100.917C212.547 101.723 213.757 102.909 214.652 104.475C215.548 106.042 215.995 108.078 215.995 110.585C215.995 113.494 215.302 115.978 213.913 118.037C212.57 120.051 210.621 121.595 208.069 122.669C205.561 123.743 202.561 124.28 199.067 124.28H181.871V76.3454H195.91ZM197.119 96.3519C200.881 96.3519 203.457 95.7477 204.844 94.5393C206.278 93.3308 206.994 91.5405 206.994 89.1684C206.994 86.7515 206.144 85.0283 204.441 83.9989C202.74 82.9695 200.031 82.4548 196.313 82.4548H189.126V96.3519H197.119ZM189.126 102.26V118.238H197.925C201.822 118.238 204.531 117.477 206.054 115.956C207.576 114.434 208.338 112.42 208.338 109.913C208.338 108.392 208.002 107.049 207.33 105.885C206.658 104.722 205.516 103.826 203.904 103.2C202.337 102.573 200.187 102.26 197.455 102.26H189.126ZM275.999 124.28L270.894 110.45H252.354L247.248 124.28H239.725L257.929 76.144H265.453L283.59 124.28H275.999ZM264.042 90.6454C263.908 90.1531 263.662 89.4146 263.303 88.4299C262.99 87.4005 262.676 86.3711 262.363 85.3417C262.05 84.2675 261.803 83.3947 261.624 82.7234C261.4 83.6185 261.131 84.6032 260.818 85.6773C260.549 86.7067 260.28 87.6691 260.012 88.5642C259.743 89.4146 259.519 90.1083 259.34 90.6454L254.503 104.14H268.879L264.042 90.6454ZM349.575 124.28H340.776L316.526 85.5431H316.257C316.302 86.4382 316.346 87.4005 316.391 88.4299C316.481 89.4593 316.548 90.5559 316.593 91.7196C316.638 92.8385 316.682 94.0022 316.727 95.2106C316.772 96.3743 316.794 97.5604 316.794 98.7688V124.28H310.211V76.3454H318.944L343.127 114.881H343.328C343.283 114.21 343.239 113.382 343.194 112.397C343.149 111.368 343.105 110.271 343.06 109.108C343.06 107.944 343.037 106.758 342.992 105.55C342.947 104.341 342.903 103.2 342.858 102.126V76.3454H349.575V124.28Z" fill="#1E1B4B"/>
<path d="M111.223 135.194C109.449 135.194 107.851 135.503 106.426 136.121C105.029 136.712 103.847 137.571 102.88 138.699C101.912 139.8 101.173 141.129 100.663 142.687C100.152 144.218 99.8971 145.923 99.8971 147.803C99.8971 150.381 100.3 152.636 101.106 154.57C101.912 156.477 103.121 157.954 104.734 159.001C106.373 160.048 108.401 160.572 110.82 160.572C112.217 160.572 113.507 160.464 114.689 160.25C115.871 160.035 116.959 159.766 117.954 159.444V161.458C116.986 161.834 115.898 162.129 114.689 162.344C113.507 162.559 112.123 162.667 110.538 162.667C107.662 162.667 105.244 162.049 103.283 160.814C101.348 159.578 99.8836 157.846 98.8894 155.617C97.9221 153.388 97.4385 150.783 97.4385 147.803C97.4385 145.681 97.7475 143.721 98.3655 141.922C98.9835 140.122 99.8836 138.565 101.066 137.249C102.248 135.933 103.686 134.913 105.379 134.187C107.098 133.462 109.06 133.1 111.263 133.1C112.633 133.1 113.95 133.234 115.213 133.503C116.503 133.771 117.698 134.161 118.8 134.671L117.873 136.725C116.852 136.215 115.777 135.839 114.649 135.597C113.547 135.329 112.405 135.194 111.223 135.194ZM155.74 147.843C155.74 150.045 155.458 152.046 154.894 153.845C154.356 155.644 153.55 157.215 152.475 158.558C151.401 159.874 150.044 160.894 148.405 161.619C146.792 162.317 144.911 162.667 142.762 162.667C140.585 162.667 138.691 162.304 137.079 161.579C135.467 160.854 134.123 159.833 133.048 158.517C131.974 157.202 131.168 155.644 130.63 153.845C130.093 152.019 129.824 150.005 129.824 147.803C129.824 144.875 130.308 142.311 131.275 140.109C132.269 137.907 133.734 136.188 135.668 134.953C137.63 133.691 140.048 133.06 142.923 133.06C145.691 133.06 148.015 133.664 149.896 134.872C151.804 136.054 153.255 137.746 154.249 139.948C155.243 142.15 155.74 144.781 155.74 147.843ZM132.283 147.803C132.283 150.381 132.659 152.623 133.411 154.53C134.163 156.436 135.319 157.927 136.877 159.001C138.436 160.075 140.411 160.612 142.802 160.612C145.22 160.612 147.195 160.088 148.727 159.041C150.285 157.967 151.427 156.477 152.153 154.57C152.905 152.663 153.281 150.421 153.281 147.843C153.281 143.842 152.408 140.726 150.662 138.498C148.942 136.269 146.362 135.154 142.923 135.154C140.505 135.154 138.503 135.678 136.918 136.725C135.359 137.773 134.19 139.249 133.411 141.156C132.659 143.063 132.283 145.278 132.283 147.803ZM182.567 135.194C180.793 135.194 179.195 135.503 177.771 136.121C176.373 136.712 175.191 137.571 174.224 138.699C173.256 139.8 172.518 141.129 172.007 142.687C171.496 144.218 171.241 145.923 171.241 147.803C171.241 150.381 171.644 152.636 172.45 154.57C173.256 156.477 174.466 157.954 176.078 159.001C177.717 160.048 179.745 160.572 182.164 160.572C183.561 160.572 184.851 160.464 186.033 160.25C187.215 160.035 188.304 159.766 189.298 159.444V161.458C188.33 161.834 187.242 162.129 186.033 162.344C184.851 162.559 183.467 162.667 181.882 162.667C179.007 162.667 176.588 162.049 174.627 160.814C172.692 159.578 171.228 157.846 170.234 155.617C169.266 153.388 168.783 150.783 168.783 147.803C168.783 145.681 169.092 143.721 169.71 141.922C170.328 140.122 171.228 138.565 172.41 137.249C173.592 135.933 175.03 134.913 176.723 134.187C178.442 133.462 180.404 133.1 182.607 133.1C183.977 133.1 185.294 133.234 186.557 133.503C187.847 133.771 189.042 134.161 190.144 134.671L189.217 136.725C188.196 136.215 187.121 135.839 185.993 135.597C184.891 135.329 183.749 135.194 182.567 135.194ZM227.084 147.843C227.084 150.045 226.802 152.046 226.238 153.845C225.7 155.644 224.894 157.215 223.819 158.558C222.745 159.874 221.388 160.894 219.749 161.619C218.136 162.317 216.256 162.667 214.106 162.667C211.93 162.667 210.035 162.304 208.423 161.579C206.811 160.854 205.467 159.833 204.393 158.517C203.318 157.202 202.512 155.644 201.974 153.845C201.437 152.019 201.168 150.005 201.168 147.803C201.168 144.875 201.652 142.311 202.619 140.109C203.613 137.907 205.078 136.188 207.012 134.953C208.974 133.691 211.392 133.06 214.267 133.06C217.035 133.06 219.359 133.664 221.24 134.872C223.148 136.054 224.599 137.746 225.593 139.948C226.587 142.15 227.084 144.781 227.084 147.843ZM203.627 147.803C203.627 150.381 204.003 152.623 204.755 154.53C205.508 156.436 206.663 157.927 208.221 159.001C209.78 160.075 211.755 160.612 214.146 160.612C216.565 160.612 218.54 160.088 220.071 159.041C221.63 157.967 222.771 156.477 223.497 154.57C224.249 152.663 224.626 150.421 224.626 147.843C224.626 143.842 223.752 140.726 222.006 138.498C220.286 136.269 217.707 135.154 214.267 135.154C211.849 135.154 209.847 135.678 208.262 136.725C206.703 137.773 205.534 139.249 204.755 141.156C204.003 143.063 203.627 145.278 203.627 147.803ZM266.043 147.843C266.043 150.045 265.761 152.046 265.196 153.845C264.659 155.644 263.853 157.215 262.778 158.558C261.703 159.874 260.346 160.894 258.707 161.619C257.095 162.317 255.214 162.667 253.065 162.667C250.888 162.667 248.994 162.304 247.382 161.579C245.769 160.854 244.426 159.833 243.351 158.517C242.276 157.202 241.47 155.644 240.933 153.845C240.395 152.019 240.127 150.005 240.127 147.803C240.127 144.875 240.61 142.311 241.578 140.109C242.572 137.907 244.036 136.188 245.971 134.953C247.932 133.691 250.351 133.06 253.226 133.06C255.993 133.06 258.318 133.664 260.199 134.872C262.106 136.054 263.557 137.746 264.551 139.948C265.546 142.15 266.043 144.781 266.043 147.843ZM242.585 147.803C242.585 150.381 242.961 152.623 243.714 154.53C244.466 156.436 245.622 157.927 247.18 159.001C248.739 160.075 250.713 160.612 253.105 160.612C255.523 160.612 257.498 160.088 259.03 159.041C260.588 157.967 261.73 156.477 262.456 154.57C263.208 152.663 263.584 150.421 263.584 147.843C263.584 143.842 262.711 140.726 260.964 138.498C259.245 136.269 256.665 135.154 253.226 135.154C250.807 135.154 248.806 135.678 247.22 136.725C245.662 137.773 244.493 139.249 243.714 141.156C242.961 143.063 242.585 145.278 242.585 147.803ZM301.898 162.264H299.439L282.753 137.128H282.632C282.632 137.665 282.646 138.216 282.672 138.78C282.699 139.317 282.713 139.881 282.713 140.471C282.74 141.062 282.753 141.666 282.753 142.284C282.78 142.875 282.793 143.479 282.793 144.097V162.264H280.617V133.503H283.116L299.721 158.558H299.842C299.842 158.155 299.829 157.685 299.802 157.148C299.775 156.584 299.748 155.993 299.721 155.376C299.721 154.758 299.708 154.14 299.681 153.523C299.681 152.905 299.681 152.314 299.681 151.75V133.503H301.898V162.264Z" fill="#1E1B4B"/>
</g>
<path d="M2.59334 127.589C-0.0999283 130.182 1.19683 134.073 7.88012 143.848C15.0622 154.422 22.4437 167.19 31.8203 185.145C41.1968 203.2 46.3839 211.778 49.6756 214.571C51.1719 215.868 63.94 225.644 78.0048 236.317C117.805 266.442 119.102 267.838 118.903 282.601C118.903 287.289 118.105 295.469 117.307 300.756C116.409 306.142 115.711 310.93 115.711 311.529C115.711 312.127 125.686 312.526 144.139 312.526C159.8 312.526 172.568 312.427 172.668 312.227C172.668 312.127 173.366 304.147 174.065 294.571C175.96 271.629 175.86 261.654 173.965 248.786C171.272 230.531 167.681 222.551 156.608 210.481C149.027 202.202 142.344 197.314 123.591 186.541C114.514 181.354 101.546 173.574 94.8627 169.284C77.8053 158.212 73.6158 156.018 68.728 155.319C65.137 154.821 63.8402 155.12 61.6457 156.915C58.0547 159.708 58.0547 163.299 61.7455 168.985C65.0372 174.073 68.0297 176.866 79.8003 186.342C84.4886 190.033 89.4761 194.521 90.9724 196.217C98.4537 204.796 89.6756 207.988 77.9051 201.005C69.2268 195.918 62.8427 188.736 45.4861 164.696C21.147 130.781 17.5559 127.09 9.17688 126.192C5.48611 125.893 3.98985 126.192 2.59334 127.589Z" fill="#1E1B4B"/>
<path d="M382.643 129.085C377.955 132.277 368.279 144.447 346.633 174.871C332.07 195.22 319.701 205.394 310.524 204.596C302.444 203.898 303.94 199.509 315.312 190.033C326.982 180.357 335.162 172.776 337.755 169.384C341.247 164.796 341.446 159.309 338.254 156.816C333.765 153.125 326.583 155.02 314.514 163.1C305.337 169.185 282.693 182.851 269.526 190.232C253.366 199.309 244.09 207.289 235.112 220.257C230.324 227.24 228.03 233.624 226.035 245.594C223.541 260.556 223.242 268.636 224.838 288.586C225.736 299.26 226.434 309.035 226.434 310.232V312.526H255.461C282.593 312.526 284.389 312.427 283.89 310.731C282.394 305.743 280.1 285.394 280.499 279.708C281.197 267.24 283.491 264.846 330.573 229.334C342.743 220.157 351.521 212.776 353.516 210.082C355.212 207.688 360.399 198.611 364.987 190.033C377.855 165.893 382.743 157.314 390.723 145.344C400.299 130.781 400.499 125.993 391.521 125.993C388.529 125.993 386.035 126.89 382.643 129.085Z" fill="#1E1B4B"/>
<defs>
<clipPath id="clip0_282_19">
<rect width="313.034" height="95.333" fill="white" transform="translate(43.3691 67.6069)"/>
</clipPath>
</defs>
</svg>
