<svg width="400" height="353" viewBox="0 0 400 353" fill="none" xmlns="http://www.w3.org/2000/svg">
<g clip-path="url(#clip0_282_32)">
<path d="M55.7083 270.445C55.7083 274.679 54.8214 278.513 53.0474 281.946C51.3306 285.321 48.6697 288.011 45.0645 290.013C41.4594 291.958 36.91 292.931 31.4165 292.931C23.6339 292.931 17.7112 290.871 13.6482 286.752C9.64248 282.575 7.63965 277.082 7.63965 270.274V230.795H16.91V269.844C16.91 274.879 18.1403 278.684 20.601 281.259C23.0617 283.777 26.8099 285.035 31.8457 285.035C35.2791 285.035 38.0832 284.406 40.2577 283.147C42.4322 281.888 44.0059 280.143 44.9787 277.912C46.0087 275.623 46.5238 272.906 46.5238 269.759V230.795H55.7083V270.445ZM114.445 230.795C119.709 230.795 124.03 231.453 127.406 232.769C130.782 234.084 133.301 236.058 134.96 238.69C136.619 241.265 137.449 244.526 137.449 248.474C137.449 251.621 136.848 254.282 135.647 256.456C134.502 258.573 133.014 260.318 131.183 261.691C129.352 263.007 127.435 264.066 125.432 264.867L142.599 292.073H131.956L117.192 267.27H106.548V292.073H97.2774V230.795H114.445ZM113.844 238.69H106.548V259.546H114.273C117.421 259.546 119.996 259.145 121.998 258.344C124.059 257.543 125.546 256.342 126.462 254.739C127.435 253.137 127.921 251.163 127.921 248.818C127.921 246.357 127.406 244.412 126.376 242.982C125.404 241.494 123.859 240.407 121.741 239.72C119.681 239.034 117.048 238.69 113.844 238.69ZM195.287 230.795C200.495 230.795 204.844 231.281 208.334 232.254C211.883 233.226 214.544 234.857 216.317 237.146C218.149 239.377 219.064 242.352 219.064 246.071C219.064 248.474 218.635 250.62 217.776 252.508C216.918 254.339 215.659 255.884 213.999 257.143C212.398 258.344 210.394 259.145 207.991 259.546V259.975C210.452 260.375 212.655 261.119 214.6 262.206C216.546 263.236 218.091 264.752 219.235 266.755C220.38 268.757 220.952 271.361 220.952 274.565C220.952 278.284 220.065 281.459 218.291 284.091C216.574 286.666 214.085 288.64 210.823 290.013C207.619 291.386 203.785 292.073 199.321 292.073H177.347V230.795H195.287ZM196.832 256.37C201.639 256.37 204.93 255.598 206.703 254.053C208.535 252.508 209.45 250.219 209.45 247.187C209.45 244.097 208.363 241.894 206.188 240.579C204.014 239.263 200.552 238.605 195.802 238.605H186.617V256.37H196.832ZM186.617 263.923V284.349H197.862C202.841 284.349 206.303 283.376 208.248 281.431C210.194 279.485 211.167 276.911 211.167 273.707C211.167 271.761 210.738 270.045 209.879 268.557C209.021 267.07 207.562 265.925 205.501 265.124C203.499 264.323 200.752 263.923 197.261 263.923H186.617ZM297.626 292.073L291.102 274.393H267.411L260.888 292.073H251.274L274.536 230.537H284.15L307.326 292.073H297.626ZM282.347 249.075C282.175 248.446 281.861 247.502 281.403 246.243C281.003 244.927 280.602 243.611 280.201 242.295C279.801 240.922 279.486 239.806 279.257 238.948C278.971 240.092 278.628 241.351 278.227 242.724C277.883 244.04 277.54 245.27 277.197 246.415C276.853 247.502 276.568 248.388 276.338 249.075L270.158 266.326H288.527L282.347 249.075ZM391.643 292.073H380.398L349.411 242.552H349.068C349.125 243.697 349.182 244.927 349.24 246.243C349.354 247.559 349.44 248.961 349.497 250.448C349.555 251.879 349.611 253.366 349.669 254.911C349.726 256.399 349.755 257.915 349.755 259.46V292.073H341.343V230.795H352.501L383.403 280.057H383.66C383.603 279.199 383.546 278.141 383.489 276.882C383.431 275.566 383.374 274.164 383.317 272.677C383.317 271.189 383.289 269.673 383.231 268.128C383.174 266.583 383.117 265.124 383.059 263.751V230.795H391.643V292.073Z" fill="#1E1B4B"/>
<path d="M86.0429 316.687C83.7768 316.687 81.7339 317.082 79.9142 317.872C78.1288 318.627 76.618 319.725 75.382 321.167C74.1459 322.575 73.2017 324.274 72.5494 326.265C71.897 328.222 71.5708 330.402 71.5708 332.805C71.5708 336.101 72.0859 338.984 73.1159 341.456C74.1459 343.893 75.691 345.782 77.7511 347.12C79.8455 348.459 82.4378 349.129 85.5279 349.129C87.3133 349.129 88.9614 348.991 90.4721 348.717C91.9828 348.442 93.3734 348.099 94.6438 347.687V350.262C93.4077 350.742 92.0172 351.12 90.4721 351.394C88.9614 351.669 87.1931 351.806 85.1674 351.806C81.4936 351.806 78.4034 351.017 75.897 349.438C73.4249 347.858 71.5537 345.644 70.2833 342.795C69.0472 339.945 68.4292 336.616 68.4292 332.805C68.4292 330.093 68.824 327.587 69.6137 325.287C70.4034 322.987 71.5537 320.996 73.0644 319.313C74.5751 317.631 76.412 316.327 78.5751 315.4C80.7725 314.473 83.279 314.01 86.0944 314.01C87.8455 314.01 89.5279 314.181 91.1416 314.524C92.7897 314.868 94.3176 315.366 95.7253 316.018L94.5408 318.644C93.2361 317.992 91.8627 317.511 90.4206 317.202C89.0129 316.859 87.5537 316.687 86.0429 316.687ZM142.928 332.856C142.928 335.671 142.567 338.229 141.846 340.529C141.16 342.829 140.13 344.837 138.756 346.554C137.383 348.236 135.649 349.541 133.555 350.467C131.494 351.36 129.091 351.806 126.344 351.806C123.563 351.806 121.143 351.343 119.082 350.416C117.022 349.489 115.306 348.185 113.932 346.502C112.559 344.82 111.529 342.829 110.842 340.529C110.155 338.195 109.812 335.62 109.812 332.805C109.812 329.063 110.43 325.785 111.666 322.97C112.936 320.154 114.808 317.957 117.28 316.378C119.786 314.765 122.876 313.958 126.55 313.958C130.087 313.958 133.057 314.73 135.46 316.275C137.898 317.786 139.752 319.949 141.022 322.764C142.293 325.579 142.928 328.943 142.928 332.856ZM112.954 332.805C112.954 336.101 113.434 338.967 114.396 341.404C115.357 343.842 116.833 345.747 118.825 347.12C120.816 348.494 123.34 349.18 126.396 349.18C129.486 349.18 132.009 348.511 133.967 347.172C135.958 345.799 137.417 343.893 138.344 341.456C139.306 339.019 139.786 336.152 139.786 332.856C139.786 327.741 138.67 323.759 136.439 320.91C134.241 318.06 130.945 316.636 126.55 316.636C123.46 316.636 120.902 317.305 118.876 318.644C116.885 319.983 115.391 321.871 114.396 324.308C113.434 326.746 112.954 329.578 112.954 332.805ZM177.208 316.687C174.942 316.687 172.899 317.082 171.079 317.872C169.294 318.627 167.783 319.725 166.547 321.167C165.311 322.575 164.367 324.274 163.714 326.265C163.062 328.222 162.736 330.402 162.736 332.805C162.736 336.101 163.251 338.984 164.281 341.456C165.311 343.893 166.856 345.782 168.916 347.12C171.01 348.459 173.603 349.129 176.693 349.129C178.478 349.129 180.126 348.991 181.637 348.717C183.148 348.442 184.538 348.099 185.809 347.687V350.262C184.573 350.742 183.182 351.12 181.637 351.394C180.126 351.669 178.358 351.806 176.332 351.806C172.658 351.806 169.568 351.017 167.062 349.438C164.59 347.858 162.718 345.644 161.448 342.795C160.212 339.945 159.594 336.616 159.594 332.805C159.594 330.093 159.989 327.587 160.779 325.287C161.568 322.987 162.718 320.996 164.229 319.313C165.74 317.631 167.577 316.327 169.74 315.4C171.937 314.473 174.444 314.01 177.259 314.01C179.01 314.01 180.693 314.181 182.306 314.524C183.955 314.868 185.482 315.366 186.89 316.018L185.706 318.644C184.401 317.992 183.027 317.511 181.585 317.202C180.178 316.859 178.718 316.687 177.208 316.687ZM234.093 332.856C234.093 335.671 233.732 338.229 233.011 340.529C232.324 342.829 231.294 344.837 229.921 346.554C228.548 348.236 226.814 349.541 224.719 350.467C222.659 351.36 220.256 351.806 217.509 351.806C214.728 351.806 212.307 351.343 210.247 350.416C208.187 349.489 206.47 348.185 205.097 346.502C203.724 344.82 202.694 342.829 202.007 340.529C201.32 338.195 200.977 335.62 200.977 332.805C200.977 329.063 201.595 325.785 202.831 322.97C204.101 320.154 205.973 317.957 208.445 316.378C210.951 314.765 214.041 313.958 217.715 313.958C221.252 313.958 224.221 314.73 226.625 316.275C229.063 317.786 230.917 319.949 232.187 322.764C233.458 325.579 234.093 328.943 234.093 332.856ZM204.118 332.805C204.118 336.101 204.599 338.967 205.561 341.404C206.522 343.842 207.998 345.747 209.99 347.12C211.981 348.494 214.505 349.18 217.561 349.18C220.651 349.18 223.174 348.511 225.131 347.172C227.123 345.799 228.582 343.893 229.509 341.456C230.47 339.019 230.951 336.152 230.951 332.856C230.951 327.741 229.835 323.759 227.603 320.91C225.406 318.06 222.11 316.636 217.715 316.636C214.625 316.636 212.067 317.305 210.041 318.644C208.05 319.983 206.556 321.871 205.561 324.308C204.599 326.746 204.118 329.578 204.118 332.805ZM283.875 332.856C283.875 335.671 283.514 338.229 282.793 340.529C282.106 342.829 281.076 344.837 279.703 346.554C278.33 348.236 276.596 349.541 274.501 350.467C272.441 351.36 270.038 351.806 267.291 351.806C264.51 351.806 262.089 351.343 260.029 350.416C257.969 349.489 256.252 348.185 254.879 346.502C253.506 344.82 252.476 342.829 251.789 340.529C251.102 338.195 250.759 335.62 250.759 332.805C250.759 329.063 251.377 325.785 252.613 322.97C253.883 320.154 255.755 317.957 258.227 316.378C260.733 314.765 263.823 313.958 267.497 313.958C271.033 313.958 274.003 314.73 276.407 316.275C278.845 317.786 280.699 319.949 281.969 322.764C283.239 325.579 283.875 328.943 283.875 332.856ZM253.9 332.805C253.9 336.101 254.381 338.967 255.342 341.404C256.304 343.842 257.78 345.747 259.772 347.12C261.763 348.494 264.287 349.18 267.343 349.18C270.433 349.18 272.956 348.511 274.913 347.172C276.905 345.799 278.364 343.893 279.291 341.456C280.252 339.019 280.733 336.152 280.733 332.856C280.733 327.741 279.617 323.759 277.385 320.91C275.188 318.06 271.892 316.636 267.497 316.636C264.407 316.636 261.849 317.305 259.823 318.644C257.832 319.983 256.338 321.871 255.342 324.308C254.381 326.746 253.9 329.578 253.9 332.805ZM329.691 351.291H326.549L305.227 319.159H305.073C305.073 319.846 305.09 320.549 305.124 321.27C305.159 321.957 305.176 322.678 305.176 323.433C305.21 324.188 305.227 324.961 305.227 325.75C305.262 326.505 305.279 327.278 305.279 328.067V351.291H302.498V314.524H305.691L326.91 346.554H327.064C327.064 346.039 327.047 345.438 327.013 344.752C326.979 344.031 326.944 343.275 326.91 342.486C326.91 341.696 326.893 340.907 326.858 340.117C326.858 339.328 326.858 338.572 326.858 337.851V314.524H329.691V351.291Z" fill="#1E1B4B"/>
</g>
<path d="M80.3198 46.4399V110.44" stroke="#1E1B4B" stroke-width="4" stroke-linecap="round"/>
<path d="M319.36 46.4399V110.44" stroke="#1E1B4B" stroke-width="4" stroke-linecap="round"/>
<path d="M201.619 0.269376C199.006 -0.624779 196.164 0.768336 195.269 3.38099C194.375 5.99364 195.768 8.83647 198.381 9.73062L201.619 0.269376ZM327.054 53.7678L331.785 55.3868L335.023 45.9255L330.292 44.3065L327.054 53.7678ZM198.381 9.73062L327.054 53.7678L330.292 44.3065L201.619 0.269376L198.381 9.73062Z" fill="#1E1B4B"/>
<path d="M198.414 0.269376C201.027 -0.624779 203.87 0.768336 204.764 3.38099C205.658 5.99364 204.265 8.83647 201.652 9.73062L198.414 0.269376ZM72.9793 53.7678L68.2486 55.3868L65.0106 45.9255L69.7412 44.3065L72.9793 53.7678ZM201.652 9.73062L72.9793 53.7678L69.7412 44.3065L198.414 0.269376L201.652 9.73062Z" fill="#1E1B4B"/>
<path d="M53.9769 79.1867C51.9746 81.1148 52.9387 84.007 57.9073 91.2745C63.2467 99.1353 68.7344 108.628 75.7053 121.976C82.6762 135.399 86.5324 141.776 88.9797 143.853C90.092 144.817 99.5843 152.084 110.041 160.019C139.63 182.415 140.594 183.453 140.446 194.429C140.446 197.914 139.852 203.995 139.259 207.926C138.592 211.93 138.072 215.49 138.072 215.935C138.072 216.38 145.488 216.676 159.208 216.676C170.85 216.676 180.343 216.602 180.417 216.454C180.417 216.38 180.936 210.447 181.455 203.328C182.864 186.271 182.79 178.856 181.381 169.289C179.379 155.718 176.709 149.785 168.477 140.812C162.841 134.657 157.873 131.023 143.931 123.014C137.183 119.158 127.542 113.374 122.573 110.185C109.892 101.953 106.778 100.322 103.144 99.8027C100.474 99.4319 99.5101 99.6544 97.8787 100.989C95.209 103.066 95.209 105.735 97.9528 109.962C100.4 113.744 102.625 115.821 111.375 122.866C114.861 125.61 118.569 128.947 119.681 130.208C125.243 136.585 118.717 138.958 109.966 133.767C103.515 129.985 98.7686 124.646 85.865 106.774C67.7704 81.5597 65.1007 78.8159 58.8714 78.1484C56.1275 77.926 55.0151 78.1484 53.9769 79.1867Z" fill="#1E1B4B"/>
<path d="M336.52 80.299C333.035 82.6721 325.842 91.7194 309.749 114.338C298.922 129.466 289.726 137.03 282.904 136.437C276.897 135.918 278.009 132.655 286.463 125.61C295.14 118.416 301.221 112.78 303.149 110.259C305.745 106.848 305.893 102.769 303.52 100.915C300.183 98.1712 294.843 99.5802 285.87 105.587C279.048 110.111 262.214 120.27 252.425 125.758C240.411 132.507 233.514 138.439 226.84 148.08C223.281 153.271 221.575 158.017 220.092 166.916C218.238 178.04 218.015 184.047 219.202 198.878C219.869 206.813 220.388 214.081 220.388 214.971V216.676H241.968C262.14 216.676 263.474 216.602 263.104 215.341C261.991 211.634 260.286 196.505 260.582 192.278C261.101 183.008 262.807 181.229 297.81 154.828C306.857 148.006 313.383 142.518 314.866 140.516C316.127 138.736 319.983 131.987 323.394 125.61C332.961 107.663 336.595 101.286 342.527 92.3869C349.646 81.5597 349.795 78.0001 343.12 78.0001C340.896 78.0001 339.042 78.6676 336.52 80.299Z" fill="#1E1B4B"/>
<defs>
<clipPath id="clip0_282_32">
<rect width="400" height="121.87" fill="white" transform="translate(0 230.28)"/>
</clipPath>
</defs>
</svg>
