<?xml version="1.0" standalone="no"?>
<!DOCTYPE svg PUBLIC "-//W3C//DTD SVG 20010904//EN"
 "http://www.w3.org/TR/2001/REC-SVG-20010904/DTD/svg10.dtd">
<svg version="1.0" xmlns="http://www.w3.org/2000/svg"
 width="350.000000pt" height="350.000000pt" viewBox="0 0 350.000000 350.000000"
 preserveAspectRatio="xMidYMid meet">
<metadata>
Created by potrace 1.14, written by Peter Selinger 2001-2017
</metadata>
<g transform="translate(0.000000,350.000000) scale(0.100000,-0.100000)"
fill="#000000" stroke="none">
<path d="M1070 2630 c-366 -126 -666 -229 -667 -230 -6 -1 30 -90 37 -90 4 0
26 7 49 15 l41 14 0 -217 -1 -217 -20 25 c-74 91 -95 114 -123 131 -51 31
-106 21 -106 -20 0 -8 30 -62 67 -120 36 -59 106 -180 156 -271 49 -91 100
-179 113 -197 13 -17 90 -82 172 -144 360 -275 366 -280 364 -397 0 -43 -6
-107 -11 -142 -6 -35 -8 -66 -6 -69 3 -3 94 -7 203 -9 169 -4 199 -2 210 11
22 26 28 414 8 505 -40 187 -117 273 -401 442 -104 62 -208 125 -230 140 -99
68 -167 86 -199 54 -41 -41 -4 -95 157 -228 75 -62 94 -90 77 -111 -16 -20
-59 -12 -115 20 -53 31 -86 67 -189 205 l-86 114 0 253 c0 253 0 253 23 263
12 6 277 97 589 204 l567 193 586 -200 585 -200 0 -269 0 -270 -56 -79 c-74
-105 -147 -184 -200 -215 -69 -41 -140 -32 -115 13 5 11 48 52 95 92 115 98
156 145 156 179 0 68 -65 71 -170 7 -41 -25 -140 -84 -220 -132 -214 -126
-275 -169 -336 -236 -115 -127 -140 -230 -130 -536 3 -113 10 -209 15 -214 9
-9 405 -6 415 4 3 3 1 32 -4 65 -16 94 -14 207 4 241 21 42 98 110 287 254 90
68 184 144 209 169 30 30 77 104 139 220 52 96 121 216 152 267 83 131 87 162
19 163 -42 0 -85 -34 -152 -120 l-63 -82 -3 227 c-1 126 -1 230 1 232 2 2 23
-4 47 -12 23 -8 46 -15 50 -15 5 0 15 20 24 45 11 35 12 47 3 50 -143 52
-1332 455 -1340 454 -7 0 -311 -103 -677 -229z"/>
</g>
</svg>
